<?xml version="1.0" encoding="UTF-8"?>
<svg version="1.1" xmlns="http://www.w3.org/2000/svg" width="1212" height="244">
<path d="M0 0 C11.88 0 23.76 0 36 0 C41.00023156 16.41787262 41.00023156 16.41787262 43.171875 23.55078125 C44.63941371 28.37100251 46.10703141 33.19119959 47.57519531 38.01123047 C50.11435395 46.34770656 52.65137626 54.684822 55.18312454 63.02355194 C56.45602193 67.21468884 57.73530906 71.40381362 59.01855469 75.59179688 C59.57241965 77.41010934 60.12614579 79.2284641 60.6796875 81.046875 C60.92413605 81.83846008 61.16858459 82.63004517 61.42044067 83.44561768 C62.31797455 86.40787175 63 88.88523385 63 92 C63.66 92 64.32 92 65 92 C65.17298866 90.53348244 65.17298866 90.53348244 65.34947205 89.03733826 C65.97317104 84.69894964 67.15454325 80.59535257 68.40844727 76.40258789 C68.65243256 75.57251221 68.89641785 74.74243652 69.14779663 73.88720703 C69.94938363 71.16430425 70.75783974 68.44349379 71.56640625 65.72265625 C72.12590924 63.8270656 72.68497993 61.9313473 73.24363708 60.0355072 C74.71068495 55.06124833 76.18357926 50.08873943 77.65771484 45.11657715 C79.16272769 40.03644811 80.66218131 34.95467905 82.16210938 29.87304688 C85.10264762 19.91375343 88.04987949 9.95645921 91 0 C100.57 0 110.14 0 120 0 C123.24753014 10.9601968 126.49089031 21.92160402 129.72697353 32.8851862 C131.22985977 37.97623087 132.73455031 43.06672753 134.2434082 48.15600586 C135.70008875 53.0695394 137.15197219 57.98446719 138.60057259 62.90038872 C139.15344506 64.77351523 139.70802976 66.64613725 140.26437187 68.51823616 C141.04466924 71.14502905 141.81880098 73.77356693 142.59155273 76.40258789 C142.82172592 77.17223373 143.05189911 77.94187958 143.28904724 78.73484802 C144.58005347 83.15444426 145.46042234 87.42571111 146 92 C146.66 92 147.32 92 148 92 C148.38260986 90.14362915 148.38260986 90.14362915 148.77294922 88.24975586 C150.0756392 82.40061657 151.84403325 76.71975926 153.6328125 71.00390625 C154.16610672 69.28432961 154.16610672 69.28432961 154.71017456 67.53001404 C155.8450751 63.87311745 156.98488904 60.21777509 158.125 56.5625 C158.86752599 54.17393332 159.60971617 51.78526223 160.3515625 49.39648438 C161.45878195 45.8312694 162.56648145 42.26621007 163.67633057 38.70181274 C165.56493263 32.63434378 167.44330725 26.56397291 169.30371094 20.48779297 C169.67164764 19.28670395 170.03958435 18.08561493 170.41867065 16.84812927 C171.12034647 14.55503148 171.82054386 12.26148064 172.51907349 9.96742249 C172.83101654 8.94813156 173.14295959 7.92884064 173.46435547 6.87866211 C173.87450394 5.53317543 173.87450394 5.53317543 174.29293823 4.1605072 C175 2 175 2 176 0 C187.88 0 199.76 0 212 0 C204.76633111 21.97570296 197.29052241 43.83398686 189.52758789 65.62719727 C188.80347955 67.66029457 188.07943996 69.69341636 187.35546875 71.7265625 C186.99689285 72.73345627 186.63831696 73.74035004 186.26887512 74.77775574 C183.68773514 82.03706483 181.14112875 89.30791081 178.61328125 96.5859375 C178.08887703 98.09513008 178.08887703 98.09513008 177.55387878 99.6348114 C175.88425693 104.44270736 174.21867615 109.25196786 172.55737305 114.06274414 C171.96541131 115.7697215 171.3733747 117.47667291 170.78125 119.18359375 C170.51230423 119.96652802 170.24335846 120.74946228 169.96626282 121.55612183 C168.11328669 126.88671331 168.11328669 126.88671331 167 128 C164.26105915 128.08858646 161.5474673 128.11523479 158.80859375 128.09765625 C157.98875504 128.0962413 157.16891632 128.09482635 156.32423401 128.09336853 C153.69528618 128.08775289 151.06642227 128.07519779 148.4375 128.0625 C146.65950643 128.05748701 144.88151154 128.05292376 143.10351562 128.04882812 C138.73564455 128.03777839 134.36783652 128.02050331 130 128 C120.70948691 103.34479596 112.74278663 78.46007218 106 53 C103.8565843 56.21512355 102.84793966 59.29760342 101.75341797 62.94995117 C101.53854736 63.65264633 101.32367676 64.35534149 101.10229492 65.07933044 C100.3942185 67.39913874 99.69318267 69.72101182 98.9921875 72.04296875 C98.50223276 73.65307043 98.01183993 75.26303886 97.52102661 76.87287903 C96.23107052 81.10808349 94.94707608 85.34507268 93.66430664 89.5824585 C92.12359377 94.66745432 90.57550023 99.75020727 89.02864075 104.83333588 C86.68009565 112.55385197 84.34095548 120.27716088 82 128 C69.46 128 56.92 128 44 128 C35.00741985 103.32523739 26.27047395 78.56950674 17.64679527 53.76421452 C16.73420868 51.13962056 15.82088309 48.51528416 14.90736008 45.89101601 C14.46067297 44.60735298 14.01430221 43.32357983 13.56825638 42.03969383 C11.20074641 35.22695369 8.8033085 28.42753439 6.32617188 21.65380859 C5.90499084 20.50015305 5.48380981 19.3464975 5.04986572 18.15788269 C4.25672253 15.99369776 3.45801027 13.83154268 2.652771 11.67182922 C2.30232727 10.71624619 1.95188354 9.76066315 1.59082031 8.77612305 C1.28219055 7.94582077 0.97356079 7.11551849 0.65557861 6.26005554 C0 4 0 4 0 0 Z M9 7 C11.01983231 13.73277437 13.10385859 20.37799654 15.4140625 27.0078125 C15.7413031 27.95192993 16.0685437 28.89604736 16.40570068 29.86877441 C17.47640245 32.95502189 18.55046806 36.04008415 19.625 39.125 C19.99361145 40.1851532 20.3622229 41.2453064 20.74200439 42.33758545 C26.2087848 58.05968504 31.71305898 73.76861069 37.25799561 89.46331787 C37.99861409 91.55963928 38.73857107 93.65619451 39.47784424 95.75299072 C40.51135161 98.68258142 41.54810425 101.61100191 42.5859375 104.5390625 C42.88836365 105.39737671 43.19078979 106.25569092 43.50238037 107.14001465 C43.78825012 107.94410767 44.07411987 108.74820068 44.36865234 109.57666016 C44.6127182 110.26603668 44.85678406 110.95541321 45.10824585 111.66567993 C46.31125296 114.81475822 47.67208173 117.90152404 49 121 C58.24 121 67.48 121 77 121 C79.55624436 112.69787666 82.11218123 104.39565883 84.66759205 96.09327888 C85.85445967 92.23725813 87.04145666 88.38127731 88.22875977 84.52539062 C89.37672977 80.79722461 90.52434628 77.06894994 91.67172813 73.34060287 C92.10732383 71.92537517 92.54304224 70.51018523 92.97889137 69.09503555 C93.39471372 67.74485769 93.81020467 66.39457771 94.22533703 65.04418755 C94.80449422 63.16371644 95.38772844 61.28450249 95.97109985 59.40533447 C96.61930825 57.25996943 97.23848013 55.10540734 97.81576538 52.93988037 C98.1751268 51.60234711 98.1751268 51.60234711 98.54174805 50.23779297 C98.82661324 49.10348343 98.82661324 49.10348343 99.11723328 47.94625854 C100.26921121 45.40646311 101.61879526 44.40536495 104 43 C107.37036311 43.24074022 108.58798021 43.58798021 111 46 C111.88762484 48.83224994 112.68432984 51.64262562 113.43359375 54.51171875 C113.91703262 56.30694599 114.40102393 58.10202452 114.88549805 59.89697266 C115.13858734 60.84276184 115.39167664 61.78855103 115.6524353 62.76300049 C119.67038298 77.73053893 123.92413881 92.54403404 129.1875 107.125 C129.42524139 107.78615814 129.66298279 108.44731628 129.90792847 109.12850952 C131.70729098 115.50145731 131.70729098 115.50145731 135 121 C136.99964982 121.08758003 139.0023611 121.10696576 141.00390625 121.09765625 C142.21884766 121.09443359 143.43378906 121.09121094 144.68554688 121.08789062 C145.96494141 121.07951172 147.24433594 121.07113281 148.5625 121.0625 C150.48739258 121.05573242 150.48739258 121.05573242 152.45117188 121.04882812 C155.63416022 121.03699545 158.81705762 121.02051068 162 121 C166.52287142 110.85177363 170.07353528 100.39081893 173.67358398 89.88977051 C175.52965097 84.4758559 177.39734222 79.06595912 179.265625 73.65625 C179.84328613 71.98275482 179.84328613 71.98275482 180.43261719 70.27545166 C183.20339796 62.26368855 186.01819671 54.26830143 188.859375 46.28125 C189.25106873 45.17976624 189.64276245 44.07828247 190.04632568 42.94342041 C191.93563334 37.63460492 193.83014559 32.32769233 195.72949219 27.02246094 C196.41349264 25.10354456 197.0974161 23.18460074 197.78125 21.265625 C198.09398865 20.39699829 198.40672729 19.52837158 198.72894287 18.63342285 C199.1579892 17.42704163 199.1579892 17.42704163 199.59570312 16.19628906 C199.96846375 15.15556244 199.96846375 15.15556244 200.34875488 14.09381104 C201.06981453 11.77554007 201.52386543 9.38067283 202 7 C195.07 7 188.14 7 181 7 C175.15222079 24.2543106 169.64439888 41.59933053 164.28143311 59.00994873 C162.88667076 63.53651226 161.48849633 68.0620224 160.08955383 72.58729553 C159.3515373 74.97546776 158.61463669 77.36398524 157.8790741 79.75291443 C157.2239749 81.87513195 156.56472458 83.99607446 155.90048218 86.115448 C155.31756995 87.98271498 154.74708109 89.85392475 154.19155884 91.72952271 C153.94247772 92.54138031 153.69339661 93.35323792 153.43676758 94.18969727 C153.12368401 95.24109642 153.12368401 95.24109642 152.80427551 96.31373596 C152 98 152 98 149.0625 99.6875 C145.62175047 100.03859689 144.71248707 100.07433351 142 98 C140.88539271 95.33128114 140.03790298 92.85330539 139.2578125 90.0859375 C139.01261368 89.26363144 138.76741486 88.44132538 138.51478577 87.59410095 C137.70321672 84.85857149 136.91413484 82.11707742 136.125 79.375 C135.56424356 77.46860046 135.00212795 75.56260024 134.4387207 73.65698242 C132.92718792 68.52963859 131.4353788 63.39674769 129.94744873 58.26251221 C128.32051604 52.6602167 126.67659671 47.06290196 125.03515625 41.46484375 C121.67148645 29.98192761 118.33133004 18.49233945 115 7 C108.73 7 102.46 7 96 7 C95.25838623 9.53824463 94.51677246 12.07648926 93.75268555 14.69165039 C91.29800218 23.09066714 88.83850331 31.48826817 86.37665081 39.8851862 C84.8846147 44.97478739 83.39418923 50.06484857 81.9074707 55.15600586 C80.47186038 60.07192483 79.03198534 64.98657629 77.5891819 69.90038872 C77.04027994 71.77255446 76.49289959 73.64516704 75.94708824 75.51823616 C75.18061782 78.14756311 74.40868551 80.77522958 73.63549805 83.40258789 C73.41251541 84.17223373 73.18953278 84.94187958 72.95979309 85.73484802 C71.60275897 90.32093137 70.11136434 94.70088859 68 99 C65.20712321 100.21740783 63.84329726 100.2765586 60.9651947 99.33268738 C58.22064791 97.47148611 57.92109377 95.77364641 56.99438477 92.61450195 C56.65310043 91.48175339 56.3118161 90.34900482 55.96018982 89.18193054 C55.60336624 87.94240128 55.24654266 86.70287201 54.87890625 85.42578125 C54.49138256 84.12259823 54.10223527 82.81989705 53.71156311 81.51765442 C52.8861348 78.76038145 52.06852514 76.00095736 51.25616455 73.23980713 C49.42321211 67.02820556 47.50538998 60.84275394 45.5961113 54.65429306 C44.5446204 51.24160358 43.49993449 47.82683484 42.45507812 44.41210938 C42.03785004 43.04906974 41.62061369 41.68603264 41.20336914 40.32299805 C40.99578979 39.64481018 40.78821045 38.96662231 40.57434082 38.2678833 C39.48811438 34.71948113 38.40125075 31.17127414 37.31445312 27.62304688 C35.20903911 20.74888038 33.1043452 13.87449377 31 7 C23.74 7 16.48 7 9 7 Z " fill="#FFF1F1" transform="translate(0,110)"/>
<path d="M0 0 C10.56 0 21.12 0 32 0 C32.00546844 3.34260956 32.00546844 3.34260956 32.01104736 6.75274658 C32.04731251 27.7637536 32.10554996 48.77461818 32.18390274 69.78551102 C32.22365798 80.587153 32.25606834 91.3887225 32.27099609 102.19042969 C32.28403082 111.60870507 32.31104197 121.02682072 32.35461307 130.44500613 C32.37718688 135.42870884 32.39291313 140.41221484 32.39188385 145.39597321 C32.39113483 150.09431366 32.40918252 154.79221995 32.44116783 159.490448 C32.4496323 161.20759855 32.45144042 162.92479799 32.44580269 164.64196014 C32.40623205 178.55626332 33.87283606 190.60470341 44 201 C51.89920661 208.21851345 61.01200919 211.41524744 71.73828125 211.2109375 C81.19119056 210.32931902 90.32819197 206.75235644 97.0390625 199.92578125 C104.2826175 191.09480888 107.32210944 182.47514876 107 171 C105.58170982 159.88551446 100.74316529 151.61070871 92.15234375 144.50390625 C83.12521605 138.19638508 73.79341762 137.16445442 63 138 C54.24215512 140.09450317 47.9728369 144.42173048 41 150 C41 137.13 41 124.26 41 111 C60.2846652 103.28613392 79.44342638 102.31085598 98.7578125 110.54296875 C117.48255178 119.37958977 129.94863797 133.4710118 137.38671875 152.55859375 C143.12595074 170.94427377 141.13351121 190.62285172 132.4375 207.6875 C123.74214481 223.62657545 109.37872141 235.41186326 92.07421875 240.93359375 C72.02987457 246.60242722 52.40968574 244.56326286 34.125 234.40234375 C17.94906613 224.5395174 6.70219507 210.39785191 1.45413399 192.09641457 C-0.56681342 183.47812824 -0.26551298 174.76594873 -0.22705078 165.97412109 C-0.22648588 164.15986131 -0.22680477 162.34560107 -0.22793579 160.53134155 C-0.22850722 155.631223 -0.21678696 150.7312033 -0.20278788 145.83110762 C-0.19024546 140.70085628 -0.18910726 135.57060243 -0.18673706 130.44033813 C-0.18053259 120.73667438 -0.16413578 111.03305594 -0.14403808 101.3294121 C-0.12164689 90.27740167 -0.11067756 79.22538902 -0.10064721 68.17336154 C-0.07976861 45.44888176 -0.04420767 22.72444534 0 0 Z M7 6 C6.90725297 29.11414788 6.83594426 52.22825066 6.79275131 75.34254742 C6.77215961 86.07584165 6.74410402 96.80901786 6.69824219 107.54223633 C6.65827041 116.90147526 6.63254256 126.26062867 6.62364602 135.61995059 C6.61844875 140.57188783 6.60630442 145.52358051 6.57707977 150.47543907 C6.54974702 155.14496357 6.54159079 159.81414486 6.54756927 164.48374176 C6.54647697 166.18922356 6.53863014 167.89471793 6.5231781 169.60013008 C6.35874353 188.69990613 11.50246214 205.12585685 25.02734375 219.09375 C39.0343385 232.2648843 55.48735033 237.49635187 74.359375 237.20703125 C90.74606946 236.663697 104.66481411 229.64154227 116 218 C116.62261719 217.40960938 117.24523437 216.81921875 117.88671875 216.2109375 C122.0178357 211.99626987 124.66352566 207.21940281 127.3125 202 C127.65039551 201.33540771 127.98829102 200.67081543 128.33642578 199.98608398 C135.19016059 185.87086051 135.35829229 167.8631956 130.3203125 153.1015625 C123.48257294 137.03894352 112.23503078 124.69855838 96.5 117.1875 C95.59290283 116.75207886 95.59290283 116.75207886 94.66748047 116.30786133 C86.71060628 112.69797557 78.87102326 111.63274891 70.1875 111.6875 C68.88462036 111.69052124 68.88462036 111.69052124 67.55541992 111.69360352 C56.52871519 111.61763012 56.52871519 111.61763012 47 116 C46.91330568 117.4887186 46.89296506 118.981445 46.90234375 120.47265625 C46.90556641 121.37177734 46.90878906 122.27089844 46.91210938 123.19726562 C46.92048828 124.14279297 46.92886719 125.08832031 46.9375 126.0625 C46.94201172 127.01189453 46.94652344 127.96128906 46.95117188 128.93945312 C46.9629989 131.29303065 46.97947975 133.64648477 47 136 C47.80824219 135.72285156 48.61648438 135.44570312 49.44921875 135.16015625 C50.51785156 134.79792969 51.58648437 134.43570313 52.6875 134.0625 C54.27111328 133.52302734 54.27111328 133.52302734 55.88671875 132.97265625 C67.14027389 129.45680276 79.51596038 129.97891872 90.25 135.06640625 C92.27996799 136.26773496 94.12942069 137.56380208 96 139 C96.67804688 139.50402344 97.35609375 140.00804687 98.0546875 140.52734375 C107.5198264 148.11731363 112.30784547 158.72353914 113.9375 170.5625 C114.62456769 181.75597785 111.36963655 193.47032807 104 202 C103.401875 202.70640625 102.80375 203.4128125 102.1875 204.140625 C94.31132588 212.71549198 84.41785801 216.46949234 73 218 C59.60870244 218.42539065 47.96626967 213.83557457 38 205 C26.51664865 192.89592696 25.70093791 177.89197326 25.68115234 162.09741211 C25.6718427 160.39166799 25.6616725 158.68592839 25.65071106 156.98019409 C25.62351373 152.37137944 25.60829222 147.76259518 25.59528303 143.15372157 C25.57960738 138.32905405 25.55283137 133.50444818 25.5272522 128.67982483 C25.48054273 119.55345305 25.44376079 110.42706958 25.41057932 101.30063969 C25.37230249 90.90639465 25.32290695 80.51221165 25.27259517 70.11801898 C25.16939184 48.74539116 25.0804882 27.3727244 25 6 C19.06 6 13.12 6 7 6 Z " fill="#FFEDED" transform="translate(355,0)"/>
<path d="M0 0 C3.47139568 2.52309105 6.78626695 5.15679147 10 8 C9.4194679 11.30118794 8.45131901 12.91134076 6.05859375 15.234375 C5.18364258 16.09482422 5.18364258 16.09482422 4.29101562 16.97265625 C3.37352539 17.85244141 3.37352539 17.85244141 2.4375 18.75 C1.82197266 19.35199219 1.20644531 19.95398438 0.57226562 20.57421875 C-0.94514813 22.05634381 -2.47170596 23.5290967 -4 25 C-4.73633667 24.40131104 -4.73633667 24.40131104 -5.48754883 23.79052734 C-18.9428647 12.98377829 -33.75378564 9.37583283 -50.73046875 10.17578125 C-59.31991606 11.1195718 -68.6285875 13.42988693 -74.8046875 19.88671875 C-76.9835484 23.73888786 -76.59895319 27.71678823 -76 32 C-73.31650991 37.36698018 -68.37380596 39.00256741 -63 41 C-59.26196469 42.02018143 -55.4920533 42.77236333 -51.6875 43.5 C-50.64150635 43.71084229 -49.5955127 43.92168457 -48.51782227 44.13891602 C-43.52562269 45.14053447 -38.52637577 46.09213963 -33.515625 46.99609375 C-16.4496923 50.12455182 -0.91999596 54.50443014 10 69 C14.8723411 77.14281664 14.9900896 88.59879012 12.78515625 97.59375 C10.19343469 105.53653845 6.46852561 111.6802189 0 117 C-0.80630859 117.67482422 -0.80630859 117.67482422 -1.62890625 118.36328125 C-17.5709807 129.88294579 -43.43424387 130.15009159 -61.92578125 127.38671875 C-78.77863558 124.17093261 -93.61119633 115.66266026 -104.25 102.125 C-106 99 -106 99 -105.9375 97.12109375 C-104.54066395 93.9607522 -102.32166499 92.21693033 -99.75 89.9375 C-98.79609375 89.08027344 -97.8421875 88.22304687 -96.859375 87.33984375 C-94.32809165 85.26847937 -91.85175232 83.58719792 -89 82 C-88.59910156 82.56847656 -88.19820312 83.13695312 -87.78515625 83.72265625 C-79.3189503 95.22210605 -68.1789868 102.43961605 -54 105 C-50.93121174 105.28434162 -47.8931887 105.33454541 -44.8125 105.3125 C-43.98314941 105.30686035 -43.15379883 105.3012207 -42.29931641 105.29541016 C-31.60983514 105.08638061 -21.05220551 103.6567847 -13 96 C-10.59898989 92.18663101 -9.75433055 89.30597697 -10.0625 84.875 C-11.08843925 80.63445111 -11.7739957 78.90340387 -15 76 C-21.61071119 72.28828142 -28.54733287 70.83854694 -35.9375 69.5 C-38.16427764 69.07273429 -40.39083937 68.64434186 -42.6171875 68.21484375 C-43.70354492 68.00843262 -44.78990234 67.80202148 -45.90917969 67.58935547 C-56.07917351 65.65014812 -66.01803775 63.59387704 -75.75 60 C-76.71595093 59.6443396 -76.71595093 59.6443396 -77.70141602 59.28149414 C-87.06210029 55.6345547 -94.14091238 49.56205534 -98.4375 40.4375 C-101.35364519 32.24452065 -101.3706125 22.73120804 -98.375 14.5625 C-97.63389331 13.01639812 -96.8432182 11.49286744 -96 10 C-95.61070312 9.30519531 -95.22140625 8.61039063 -94.8203125 7.89453125 C-87.57745843 -3.18403547 -74.11199301 -8.63499531 -61.68261719 -11.54199219 C-40.13672422 -15.22055928 -18.30189424 -11.92243733 0 0 Z M-87.5625 9.5 C-93.55658701 17.56284271 -94.08233437 25.05084948 -93 35 C-91.23192044 41.25376289 -88.03425304 46.04786138 -82.5859375 49.6328125 C-70.87124428 55.82638142 -58.60046979 58.29866507 -45.65478516 60.53222656 C-14.61821569 66.00087353 -14.61821569 66.00087353 -7 74 C-3.64816234 79.20112741 -2.39869544 84.48344208 -3.4375 90.55859375 C-4.86229328 96.00680896 -6.52330624 99.37600982 -11 103 C-11.7425 103.70125 -12.485 104.4025 -13.25 105.125 C-24.76956539 112.97924913 -42.84154592 113.78022761 -56.08984375 111.3125 C-70.30763534 108.25291103 -80.7736728 102.2263272 -91 92 C-92.98 93.65 -94.96 95.3 -97 97 C-96.03702504 102.58031643 -92.26829854 105.57045008 -88 109 C-68.54088158 121.56307996 -45.48239465 124.59429589 -22.79638672 119.81518555 C-12.23936766 117.14020373 -2.64820062 112.41734142 3.28515625 102.94921875 C7.23747088 95.42707155 8.35398816 87.43066991 6.28125 79.1171875 C3.49370167 70.86694366 0.4188592 66.08622711 -7.25 61.9375 C-19.78890432 56.10934423 -32.5994251 53.62735187 -46.16894531 51.5168457 C-73.42250339 47.14817094 -73.42250339 47.14817094 -80.359375 38.2578125 C-83.39581617 33.07922448 -83.88935445 27.87910097 -83 22 C-81.37247166 15.92101996 -77.98406872 12.46361242 -72.625 9.3203125 C-57.74308778 1.83506499 -37.96633348 1.06015406 -22.0625 6.0625 C-15.46573258 8.49693803 -9.65663549 11.84141416 -4 16 C-2.35 13.69 -0.7 11.38 1 9 C-13.67113082 -0.67670331 -26.35419158 -5.17949139 -44 -5.3125 C-45.25167969 -5.34150391 -46.50335937 -5.37050781 -47.79296875 -5.40039062 C-62.14909297 -5.49708991 -77.52687689 -1.49963617 -87.5625 9.5 Z " fill="#FFEFEF" transform="translate(900,115)"/>
<path d="M0 0 C17.96400687 -0.55683579 33.7131259 4.88466702 48.3359375 15.16015625 C48.97144531 15.58554688 49.60695313 16.0109375 50.26171875 16.44921875 C60.70182114 24.27329548 67.79925488 39.66924708 70.3359375 52.16015625 C70.42877736 54.31877055 70.46662297 56.4800162 70.46875 58.640625 C70.47003906 59.88650391 70.47132813 61.13238281 70.47265625 62.41601562 C70.46878906 63.71345703 70.46492188 65.01089844 70.4609375 66.34765625 C70.46480469 67.65669922 70.46867187 68.96574219 70.47265625 70.31445312 C70.47072266 72.1774707 70.47072266 72.1774707 70.46875 74.078125 C70.46762207 75.22047607 70.46649414 76.36282715 70.46533203 77.53979492 C70.3359375 80.16015625 70.3359375 80.16015625 69.3359375 81.16015625 C67.86888689 81.26791539 66.3967247 81.30697185 64.92576599 81.31837463 C63.97359192 81.32816345 63.02141785 81.33795227 62.04039001 81.34803772 C60.98735184 81.35379318 59.93431366 81.35954865 58.84936523 81.36547852 C57.74706573 81.37537811 56.64476624 81.38527771 55.50906372 81.39547729 C51.84590848 81.42720112 48.18274024 81.45189258 44.51953125 81.4765625 C41.987469 81.49712264 39.45541025 81.51811885 36.9233551 81.53953552 C30.92748747 81.58919164 24.93160208 81.63443166 18.93568522 81.67755789 C12.1110924 81.72688897 5.28654834 81.78182236 -1.53799736 81.83723748 C-15.57997361 81.95113183 -29.62199663 82.05795456 -43.6640625 82.16015625 C-43.0589841 83.89779303 -42.44692736 85.6330006 -41.83203125 87.3671875 C-41.49196045 88.33374268 -41.15188965 89.30029785 -40.80151367 90.29614258 C-36.81744193 100.32772566 -28.78980546 108.94976736 -18.87109375 113.3515625 C-2.97221844 119.17646018 13.10303201 118.62499786 28.5234375 111.53515625 C33.79362528 108.75696454 37.93742306 105.2707004 42.1796875 101.11328125 C44.3359375 99.16015625 44.3359375 99.16015625 48.3359375 97.16015625 C53.2859375 101.12015625 58.2359375 105.08015625 63.3359375 109.16015625 C61.03265768 118.37327554 52.04421655 124.31576242 44.3359375 129.16015625 C25.37124539 140.05309924 3.14452215 143.85515232 -18.2890625 138.59765625 C-37.27559532 132.93707504 -51.26936615 122.0654694 -60.7890625 104.72265625 C-69.05227723 87.30466942 -70.81869858 66.04861702 -64.9765625 47.609375 C-58.17206757 29.72732433 -46.74864425 15.30873232 -29.2265625 6.84765625 C-19.62397938 2.69518787 -10.38651033 0.62440898 0 0 Z M-38.6640625 21.16015625 C-39.29957031 21.63195312 -39.93507813 22.10375 -40.58984375 22.58984375 C-51.09712012 30.83724028 -58.53644209 45.09347371 -60.6640625 58.16015625 C-62.20577779 78.61617648 -59.68127962 98.37907375 -46.2890625 114.72265625 C-35.3942048 125.88743159 -20.31601376 132.96220131 -4.73828125 133.4609375 C-2.60942043 133.47538381 -0.48046255 133.47911137 1.6484375 133.47265625 C3.2252832 133.49682617 3.2252832 133.49682617 4.83398438 133.52148438 C15.4279443 133.52799572 25.05842993 131.38069222 34.4609375 126.47265625 C35.47051514 125.95699097 35.47051514 125.95699097 36.50048828 125.4309082 C43.30378589 121.84186318 50.01436223 117.64251915 54.3359375 111.16015625 C52.3559375 109.51015625 50.3759375 107.86015625 48.3359375 106.16015625 C47.87445312 106.52367187 47.41296875 106.8871875 46.9375 107.26171875 C31.98839698 118.78375467 15.55502066 125.78539415 -3.6640625 124.16015625 C-19.09448208 122.03735864 -32.12581874 116.01676554 -41.734375 103.453125 C-46.91470262 95.70430858 -50.97443898 87.66038571 -49.6640625 78.16015625 C-45.2011104 74.11708879 -39.86966372 74.72643686 -34.19824219 74.74365234 C-32.619478 74.73077431 -32.619478 74.73077431 -31.00881958 74.71763611 C-27.53445756 74.69256731 -24.06038169 74.68819705 -20.5859375 74.68359375 C-18.1740837 74.6692872 -15.7622381 74.65353082 -13.35040283 74.63638306 C-7.0050621 74.59451737 -0.65977221 74.56952555 5.68566895 74.54888916 C15.85723007 74.51307493 26.02866601 74.45225774 36.20009613 74.39039993 C39.76159124 74.37124153 43.3230528 74.35956139 46.88458252 74.34896851 C49.05228754 74.33876266 51.21999186 74.32840528 53.38769531 74.31787109 C54.38612457 74.31682877 55.38455383 74.31578644 56.41323853 74.31471252 C57.76755478 74.30653252 57.76755478 74.30653252 59.14923096 74.29818726 C59.93824421 74.29563116 60.72725746 74.29307507 61.54018021 74.29044151 C63.35883358 74.35528876 63.35883358 74.35528876 64.3359375 73.16015625 C65.54889973 55.71216104 61.623602 39.48454949 50.2109375 25.78515625 C39.08713786 14.32256068 23.40562024 7.69410312 7.5390625 6.9921875 C-9.91636869 6.90594525 -24.68502941 10.12537969 -38.6640625 21.16015625 Z " fill="#FFEDED" transform="translate(1141.6640625,102.83984375)"/>
<path d="M0 0 C7.59 0 15.18 0 23 0 C23 17.49 23 34.98 23 53 C37.19 53 51.38 53 66 53 C66 59.6 66 66.2 66 73 C51.81 73 37.62 73 23 73 C23.09087468 87.37905587 23.09087468 87.37905587 23.20898438 101.7578125 C23.26322551 107.62595172 23.31433884 113.49399711 23.34643555 119.36230469 C23.37252575 124.09572672 23.41296849 128.82883211 23.46318626 133.5620575 C23.47981637 135.36402943 23.49135459 137.16605608 23.49761391 138.96809387 C23.50729715 141.50054791 23.53540585 144.03219888 23.56762695 146.56445312 C23.56619186 147.30245148 23.56475677 148.04044983 23.5632782 148.80081177 C23.67411134 154.99705185 24.99705454 160.48016538 28.9375 165.4375 C33.76565307 169.09519172 40.21991818 168.44344543 46 168 C50.48479925 167.02449282 54.68881529 165.53005339 58.9375 163.8125 C61 163 61 163 64 163 C65.17578304 165.57952403 66.340791 168.16303938 67.5 170.75 C67.83386719 171.47960937 68.16773438 172.20921875 68.51171875 172.9609375 C68.82753906 173.66992188 69.14335938 174.37890625 69.46875 175.109375 C69.76201172 175.75874023 70.05527344 176.40810547 70.35742188 177.07714844 C71 179 71 179 71 183 C56.32761899 189.72307948 40.48366949 194.89624589 24.40234375 189.08984375 C13.76725693 184.26514582 7.52305036 178.33788586 2.9453125 167.50390625 C0.5252041 160.66998111 -0.14840456 154.02087192 -0.11352539 146.79150391 C-0.11367142 145.99083496 -0.11381744 145.19016602 -0.1139679 144.36523438 C-0.1132748 141.73564891 -0.10551076 139.1061355 -0.09765625 136.4765625 C-0.09578993 134.64667805 -0.09436704 132.81679309 -0.09336853 130.98690796 C-0.08956023 126.18323372 -0.0797444 121.37958997 -0.06866455 116.57592773 C-0.05841411 111.66911227 -0.05386314 106.76229185 -0.04882812 101.85546875 C-0.03812056 92.23696365 -0.02053747 82.61848914 0 73 C-8.91 73 -17.82 73 -27 73 C-27 66.4 -27 59.8 -27 53 C-18.09 53 -9.18 53 0 53 C0 35.51 0 18.02 0 0 Z M7 7 C6.98018066 8.43835205 6.96036133 9.8767041 6.93994141 11.35864258 C6.86396176 16.68694796 6.77523255 22.01497751 6.68261719 27.34301758 C6.64429584 29.65057944 6.60944859 31.95820168 6.578125 34.26586914 C6.53254318 37.57980963 6.47453712 40.89333327 6.4140625 44.20703125 C6.39673569 45.75871758 6.39673569 45.75871758 6.37905884 47.3417511 C6.35918915 48.3025206 6.33931946 49.2632901 6.31884766 50.25317383 C6.30552399 51.09922684 6.29220032 51.94527985 6.2784729 52.81697083 C6 55 6 55 4 58 C1.14493951 58.95168683 -0.90937282 59.1900946 -3.88671875 59.31640625 C-4.82451172 59.35830078 -5.76230469 59.40019531 -6.72851562 59.44335938 C-7.70498047 59.48267578 -8.68144531 59.52199219 -9.6875 59.5625 C-10.67556641 59.60568359 -11.66363281 59.64886719 -12.68164062 59.69335938 C-15.12095546 59.79941654 -17.56037113 59.90147714 -20 60 C-20 61.98 -20 63.96 -20 66 C-19.42032471 66.01981934 -18.84064941 66.03963867 -18.2434082 66.06005859 C-15.59934063 66.15572601 -12.9560183 66.26523453 -10.3125 66.375 C-9.40048828 66.4059375 -8.48847656 66.436875 -7.54882812 66.46875 C1.20391258 66.85068778 1.20391258 66.85068778 5 69 C6.56073045 72.12146091 6.15308716 75.44398845 6.15771484 78.87109375 C6.16533592 80.09101768 6.16533592 80.09101768 6.17311096 81.33558655 C6.18382794 83.10620032 6.19244289 84.87682774 6.19923019 86.64746094 C6.21101702 89.45645201 6.23047304 92.26528918 6.25234985 95.07421875 C6.3139467 103.06261 6.36786233 111.05098853 6.40136719 119.03955078 C6.42240687 123.92438987 6.4577928 128.80895328 6.50212479 133.69363403 C6.51622115 135.54978165 6.52499274 137.4059781 6.52817917 139.26217651 C6.4264269 152.92048946 6.4264269 152.92048946 10 166 C10.41378906 166.97453125 10.82757812 167.9490625 11.25390625 168.953125 C14.97391624 175.48257538 19.22823448 178.82338733 26 182 C26.76183594 182.37382812 27.52367187 182.74765625 28.30859375 183.1328125 C31.87438655 184.28173268 35.29019254 184.38249877 39 184.375 C39.74386963 184.37483887 40.48773926 184.37467773 41.25415039 184.37451172 C48.5213444 184.22672548 57.66356913 183.33643087 63 178 C62.01 176.02 61.02 174.04 60 172 C59.33613281 172.13277344 58.67226563 172.26554688 57.98828125 172.40234375 C55.32552083 172.93489583 52.66276042 173.46744792 50 174 C48.74509766 174.27263672 48.74509766 174.27263672 47.46484375 174.55078125 C40.14202176 175.88536846 32.64922148 175.55389424 26 172 C20.03585715 167.42922676 18.23674316 161.15985032 17 154 C16.47396808 147.72674647 16.60094702 141.41834817 16.63671875 135.12890625 C16.63723832 133.31575013 16.63671688 131.50259344 16.63520813 129.68943787 C16.63529734 125.91144271 16.64562737 122.13366326 16.66381836 118.35571289 C16.68661802 113.51472077 16.68702356 108.67403995 16.68030071 103.83300877 C16.67696164 100.09868095 16.68358779 96.36442414 16.69342995 92.63010979 C16.69727474 90.84433297 16.69843315 89.05854827 16.6968441 87.27276802 C16.69647341 84.78398635 16.70909092 82.29560612 16.7253418 79.80688477 C16.72286438 79.0717868 16.72038696 78.33668884 16.71783447 77.57931519 C16.78825362 70.82483223 16.78825362 70.82483223 19 68 C22.879378 66.48696491 27.14730534 66.77335172 31.265625 66.68359375 C32.05902283 66.66281265 32.85242065 66.64203156 33.66986084 66.62062073 C36.19648844 66.55540027 38.72321721 66.49636856 41.25 66.4375 C42.96615616 66.3942886 44.68230222 66.35067347 46.3984375 66.30664062 C50.59885546 66.19974717 54.79937489 66.09840271 59 66 C59 64.02 59 62.04 59 60 C57.90010742 59.98018066 56.80021484 59.96036133 55.66699219 59.93994141 C51.58163778 59.86380099 47.49663562 59.77509664 43.41162109 59.68261719 C41.6444393 59.64436229 39.87718056 59.6095033 38.10986328 59.578125 C35.56775437 59.53239848 33.02617352 59.47441711 30.484375 59.4140625 C29.69569031 59.40251129 28.90700562 59.39096008 28.09442139 59.37905884 C20.88282143 59.18554244 20.88282143 59.18554244 18 57 C17.0534586 54.16037579 16.85005776 52.29593471 16.79467773 49.3449707 C16.7647599 47.93384758 16.7647599 47.93384758 16.73423767 46.49421692 C16.71752518 45.48163315 16.70081268 44.46904938 16.68359375 43.42578125 C16.66281265 42.38681198 16.64203156 41.34784271 16.62062073 40.27738953 C16.55519344 36.95582747 16.49627179 33.63418584 16.4375 30.3125 C16.39430831 28.0618407 16.35069381 25.81118948 16.30664062 23.56054688 C16.19951897 18.04044631 16.09823211 12.52026563 16 7 C13.03 7 10.06 7 7 7 Z " fill="#FFEEEE" transform="translate(948,53)"/>
<path d="M0 0 C4.39904734 3.41360921 7.51332993 6.53326397 11.04296875 10.9453125 C6.42296875 15.5653125 1.80296875 20.1853125 -2.95703125 24.9453125 C-6.44136504 23.2031456 -9.07432862 21.41837512 -12.14453125 19.0703125 C-23.72022963 10.59579591 -36.01909707 7.41400171 -50.27734375 9.41015625 C-62.38990909 11.65963267 -73.26230624 15.966216 -80.95703125 25.9453125 C-89.88653185 39.59867838 -91.28261475 55.66993139 -88.26953125 71.57421875 C-87.36646952 74.21943707 -86.3362583 76.51770103 -84.95703125 78.9453125 C-84.53292969 79.72519531 -84.10882812 80.50507813 -83.671875 81.30859375 C-77.3529262 91.78150332 -67.50880838 99.08881679 -55.70703125 102.2578125 C-40.82937098 104.98669551 -26.50622151 102.36746251 -13.95703125 93.9453125 C-10.81782099 91.41295539 -7.84743907 88.75721542 -4.95703125 85.9453125 C0.70426306 90.64298225 5.89525779 95.69254622 11.04296875 100.9453125 C0.71009116 114.35012667 -14.51901611 121.88428718 -30.95703125 124.9453125 C-35.25937808 125.3536899 -39.51234701 125.42388817 -43.83203125 125.3828125 C-44.97389893 125.37378906 -46.1157666 125.36476562 -47.29223633 125.35546875 C-65.45837268 124.9826973 -81.51787627 118.2156246 -94.59375 105.5078125 C-107.586019 91.42032744 -113.53518805 74.95176001 -113.33203125 55.9453125 C-113.34363281 54.85992187 -113.35523438 53.77453125 -113.3671875 52.65625 C-113.30002154 33.8945572 -105.85650592 18.15095219 -92.87109375 4.80078125 C-67.75578924 -18.90915423 -27.77829614 -19.30169586 0 0 Z M-69.95703125 -2.0546875 C-70.900625 -1.63058594 -71.84421875 -1.20648438 -72.81640625 -0.76953125 C-89.29390465 7.40094102 -98.84170876 21.18806294 -105.1015625 38.0234375 C-108.64778219 51.14752772 -107.7971156 69.62438219 -101.95703125 81.9453125 C-101.35568359 83.32396484 -101.35568359 83.32396484 -100.7421875 84.73046875 C-93.35352658 99.95753516 -80.68115966 109.64353048 -65.20703125 115.8828125 C-48.1981564 121.47063376 -28.97834528 119.69232764 -12.95703125 111.9453125 C-4.98967114 107.56840046 -4.98967114 107.56840046 1.04296875 100.9453125 C-0.60703125 99.2953125 -2.25703125 97.6453125 -3.95703125 95.9453125 C-7.1768036 97.4473772 -9.97190033 99.30743286 -12.89453125 101.3203125 C-25.59755586 109.4938404 -41.30068362 111.98016981 -56.00415039 108.81811523 C-63.43734852 107.03732673 -69.81344115 104.57448616 -75.95703125 99.9453125 C-76.735625 99.35878906 -77.51421875 98.77226562 -78.31640625 98.16796875 C-88.09012633 90.1489266 -94.19872284 79.51331991 -95.95703125 66.9453125 C-97.49861587 50.129559 -95.97937151 33.49007293 -84.95703125 19.9453125 C-74.2913214 8.09661018 -60.49836624 3.23917001 -44.95703125 1.9453125 C-29.49144504 1.53289687 -16.4105584 7.32363986 -3.95703125 15.9453125 C-2.30703125 13.9653125 -0.65703125 11.9853125 1.04296875 9.9453125 C-12.28966407 -1.43456096 -26.36434983 -6.65391341 -43.83203125 -6.4921875 C-44.97808838 -6.48461426 -46.12414551 -6.47704102 -47.30493164 -6.46923828 C-55.53090149 -6.30878297 -62.43123653 -5.58652976 -69.95703125 -2.0546875 Z " fill="#FFEFEF" transform="translate(621.95703125,118.0546875)"/>
<path d="M0 0 C11.2813758 9.87337666 18.30156977 24.27255524 19.53515625 39.21875 C19.85269068 47.88328655 19.7257632 56.55248718 19.53515625 65.21875 C-13.47842341 65.36889572 -46.45986245 64.97454521 -79.46484375 64.21875 C-78.85971667 65.97373179 -78.24607271 67.72577827 -77.62890625 69.4765625 C-77.1177124 70.94053467 -77.1177124 70.94053467 -76.59619141 72.43408203 C-73.70665458 79.54630841 -68.98380355 82.90677769 -62.22265625 86.17578125 C-48.81716522 91.24556327 -33.6073902 90.94489885 -20.46484375 85.21875 C-17.51293014 83.62754216 -14.63611424 81.99209759 -11.8046875 80.1953125 C-9.46484375 79.21875 -9.46484375 79.21875 -7.57543945 79.92675781 C-5.20856847 81.37562783 -3.36298192 82.99779993 -1.35546875 84.9140625 C-0.60136719 85.62949219 0.15273438 86.34492188 0.9296875 87.08203125 C1.70699219 87.82839844 2.48429687 88.57476562 3.28515625 89.34375 C4.07792969 90.09785156 4.87070312 90.85195312 5.6875 91.62890625 C7.64075733 93.4880307 9.58976445 95.35140229 11.53515625 97.21875 C10.84418529 101.00223733 9.56021681 102.29864772 6.38525391 104.5168457 C5.81597168 104.89284912 5.24668945 105.26885254 4.66015625 105.65625 C4.07153809 106.05094482 3.48291992 106.44563965 2.87646484 106.85229492 C-2.34232072 110.27399935 -7.59977501 113.0512246 -13.46484375 115.21875 C-14.45484375 115.610625 -15.44484375 116.0025 -16.46484375 116.40625 C-36.08835671 122.94742099 -60.78419952 121.48218166 -79.38476562 112.53466797 C-93.8888629 105.09063203 -104.42662761 93.51061869 -109.90234375 78.09375 C-115.6665082 58.16921809 -115.38708307 37.25771561 -105.64160156 18.7421875 C-97.04010448 3.16797096 -84.22850955 -6.28976944 -67.3046875 -11.8125 C-44.73750548 -17.62240622 -18.65105739 -14.38412484 0 0 Z M-93.46484375 12.21875 C-105.2924325 28.28403098 -108.21870895 45.57877772 -106.0390625 65.015625 C-103.38414141 79.41409276 -96.53242032 92.16926212 -84.90234375 101.2109375 C-67.57638322 112.94625379 -47.42536646 115.14397016 -27.1171875 111.96875 C-16.38644041 109.76521691 -7.37131551 105.52598612 1.53515625 99.21875 C0.05794203 95.76673361 -1.90278376 93.56913064 -4.58984375 90.96875 C-5.67652344 89.90914062 -5.67652344 89.90914062 -6.78515625 88.828125 C-7.33945312 88.29703125 -7.89375 87.7659375 -8.46484375 87.21875 C-9.2640625 87.61707031 -10.06328125 88.01539063 -10.88671875 88.42578125 C-27.83141935 96.59980936 -45.29509117 99.43991528 -63.46484375 93.21875 C-66.65714811 91.79361412 -69.55944349 90.15772239 -72.46484375 88.21875 C-73.35171875 87.64125 -74.23859375 87.06375 -75.15234375 86.46875 C-81.57159181 80.22299513 -84.86689325 73.34404003 -85.90234375 64.46875 C-85.46484375 61.21875 -85.46484375 61.21875 -83.50654602 59.53691101 C-79.36861751 57.74368619 -75.8224888 57.82165893 -71.36010742 57.87817383 C-70.45229523 57.87773575 -69.54448303 57.87729767 -68.60916138 57.87684631 C-65.61682421 57.87893171 -62.62505146 57.90225121 -59.6328125 57.92578125 C-57.55487881 57.93137808 -55.47694115 57.93564777 -53.39900208 57.93864441 C-47.9359744 57.95008625 -42.47318686 57.97954794 -37.01025391 58.01275635 C-31.43330127 58.04347135 -25.85630975 58.05715282 -20.27929688 58.07226562 C-9.34104046 58.10441811 1.59703791 58.15560665 12.53515625 58.21875 C12.56810389 55.0208581 12.58791258 51.82301052 12.60546875 48.625 C12.61489502 47.72555664 12.62432129 46.82611328 12.6340332 45.89941406 C12.69650829 30.71102551 7.53546522 17.43839573 -3.0546875 6.40625 C-17.51309551 -6.71645419 -35.94062607 -7.50728357 -54.43408203 -6.95605469 C-69.2985943 -6.09871694 -83.55589772 1.1103971 -93.46484375 12.21875 Z " fill="#FFF1F1" transform="translate(322.46484375,120.78125)"/>
<path d="M0 0 C1.85625 1.546875 1.85625 1.546875 3.75 3.125 C4.08 -2.155 4.41 -7.435 4.75 -12.875 C12.34 -12.875 19.93 -12.875 27.75 -12.875 C27.75 32.005 27.75 76.885 27.75 123.125 C20.16 123.125 12.57 123.125 4.75 123.125 C4.255 115.7 4.255 115.7 3.75 108.125 C1.7390625 109.8884375 1.7390625 109.8884375 -0.3125 111.6875 C-13.72690162 122.32845994 -31.09653161 127.81033404 -48.25 126.125 C-67.42265569 123.58831017 -84.57856904 116.33988275 -97.25 101.125 C-109.92725462 84.30525988 -114.65678773 64.87478623 -111.96582031 43.91113281 C-108.8721707 26.15374989 -99.64569195 9.96184983 -85.171875 -0.9609375 C-59.00091988 -18.10501238 -25.48551203 -19.61948437 0 0 Z M-90.4375 13.375 C-103.76797502 28.98464173 -106.26979028 46.35044592 -105.25 66.125 C-103.56893705 80.14413963 -96.23064139 92.41508126 -86.25 102.125 C-85.73308594 102.67414063 -85.21617187 103.22328125 -84.68359375 103.7890625 C-72.72793873 115.46377523 -54.98754151 119.43086976 -38.9609375 119.2734375 C-24.60196867 118.69907875 -10.721266 112.77608061 -0.59375 102.43359375 C1.38553133 100.50609594 3.03552089 100.32362042 5.75 100.125 C8 100.875 8 100.875 9.75 102.125 C10.75259507 105.13278521 11.05314642 107.66320647 11.3125 110.8125 C11.39628906 111.80636719 11.48007812 112.80023438 11.56640625 113.82421875 C11.62699219 114.58347656 11.68757812 115.34273438 11.75 116.125 C14.72 116.125 17.69 116.125 20.75 116.125 C20.75 75.865 20.75 35.605 20.75 -5.875 C17.78 -5.875 14.81 -5.875 11.75 -5.875 C11.67652344 -4.64523438 11.67652344 -4.64523438 11.6015625 -3.390625 C11.52679687 -2.31296875 11.45203125 -1.2353125 11.375 -0.125 C11.30539062 0.94234375 11.23578125 2.0096875 11.1640625 3.109375 C10.77330099 5.95529848 10.32641159 7.74645671 8.75 10.125 C6.4375 11.0625 6.4375 11.0625 3.75 11.125 C1.12840697 9.95984754 -0.91336825 8.4057622 -3.109375 6.57421875 C-14.85227559 -3.09010272 -27.52327756 -7.28398479 -42.5625 -7.1875 C-43.48603271 -7.18186035 -44.40956543 -7.1762207 -45.36108398 -7.17041016 C-63.1810381 -6.85423706 -78.23367772 0.43295029 -90.4375 13.375 Z " fill="#FFF1F1" transform="translate(751.25,117.875)"/>
<path d="M0 0 C7.59 0 15.18 0 23 0 C23 62.37 23 124.74 23 189 C15.41 189 7.82 189 0 189 C0 126.63 0 64.26 0 0 Z M7 7 C7 64.75 7 122.5 7 182 C9.97 182 12.94 182 16 182 C16 124.25 16 66.5 16 7 C13.03 7 10.06 7 7 7 Z " fill="#FFEDED" transform="translate(1033,53)"/>
<path d="M0 0 C0.69867187 0.61875 1.39734375 1.2375 2.1171875 1.875 C11.81575101 10.95139151 17.56628858 22.78432852 18.2734375 36.08203125 C18.82397149 54.16141387 14.73383776 67.79304095 2.1875 81.25 C-9.58459012 92.41435316 -23.52027919 95.63002748 -39.30517578 95.47265625 C-54.80723663 94.95432458 -67.0248423 88.93552309 -77.671875 77.76953125 C-88.70144404 64.64878553 -91.09904607 51.03414445 -90.21142578 34.40478516 C-88.82967492 18.68856574 -80.56719327 7.06187359 -69 -3 C-48.63745087 -18.51279374 -18.85768941 -17.20853787 0 0 Z M-73 10 C-81.3169837 19.93211223 -84.34839568 32.20691077 -84 45 C-82.33782 58.73872672 -77.35740908 69.90490791 -66.75 78.91015625 C-56.82661626 86.40040263 -44.4457849 90.08398772 -32 89 C-19.24649148 87.18247101 -7.76959286 82.76963415 1 73 C10.40905968 59.74177954 12.21062951 46.93940537 11 31 C10.19005069 26.96413827 8.91167709 23.63218646 7 20 C6.5875 19.154375 6.175 18.30875 5.75 17.4375 C-0.36301539 6.04506222 -9.96725529 -0.73358211 -22 -5 C-41.09343982 -10.04125261 -59.508086 -4.30880723 -73 10 Z " fill="#FFF0F0" transform="translate(746,133)"/>
<path d="M0 0 C29.04 0 58.08 0 88 0 C82.91528457 7.9902671 77.74143311 15.75447662 72.10351562 23.34375 C71.26143555 24.53097656 71.26143555 24.53097656 70.40234375 25.7421875 C69.89179443 26.4419873 69.38124512 27.14178711 68.85522461 27.86279297 C67.75291743 30.01103645 67.75291743 30.01103645 68.60522461 32.40039062 C70.19947735 35.37178975 71.97927058 38.08865298 73.9140625 40.8515625 C74.68238401 41.96087355 75.4506104 43.07025048 76.21875 44.1796875 C77.42583094 45.91042856 78.63518908 47.63953024 79.84667969 49.3671875 C81.02089345 51.04544937 82.1865765 52.72938764 83.3515625 54.4140625 C84.05104004 55.4138916 84.75051758 56.4137207 85.47119141 57.44384766 C87 60 87 60 87 63 C58.29 63 29.58 63 0 63 C0 42.21 0 21.42 0 0 Z M7 6 C7 22.5 7 39 7 56 C29.44 56 51.88 56 75 56 C71.51706742 49.73072136 68.02926522 43.8487071 63.8671875 38.06445312 C61.95648326 35.23979536 60.96004836 33.55124904 61.21020508 30.09960938 C62.03052722 26.88019362 63.0924689 24.81683217 64.94140625 22.07421875 C65.52470703 21.19572266 66.10800781 20.31722656 66.70898438 19.41210938 C67.32064453 18.51298828 67.93230469 17.61386719 68.5625 16.6875 C69.77381949 14.88003374 70.98354794 13.07149981 72.19140625 11.26171875 C72.72967041 10.46725342 73.26793457 9.67278809 73.82250977 8.85424805 C75.08934496 7.22539177 75.08934496 7.22539177 75 6 C52.56 6 30.12 6 7 6 Z " fill="#FFF4F4" transform="translate(396,0)"/>
<path d="M0 0 C10.44279277 7.91731025 17.27028757 18.18450666 19.3828125 31.24609375 C19.83912265 35.02793697 20.10853009 38.13257094 17.94703674 41.44911194 C14.0864892 44.1545437 10.58980159 43.79746988 5.98022461 43.74780273 C5.02860947 43.75320572 4.07699432 43.7586087 3.09654236 43.76417542 C-0.04923594 43.77668379 -3.1941029 43.76015853 -6.33984375 43.7421875 C-8.52412463 43.74234243 -10.7084058 43.74383033 -12.89268494 43.74659729 C-17.47000279 43.74798219 -22.04700764 43.73540671 -26.62426758 43.71264648 C-32.49807274 43.68424504 -38.37135836 43.68700263 -44.24520206 43.6997366 C-48.75500444 43.70668337 -53.26468621 43.6989162 -57.77447319 43.68647957 C-59.94066341 43.68195651 -62.10686653 43.68163569 -64.27305794 43.68554497 C-67.2969745 43.68844776 -70.32016873 43.67199519 -73.34399414 43.65014648 C-74.24329651 43.65464813 -75.14259888 43.65914978 -76.06915283 43.66378784 C-76.89208328 43.65388321 -77.71501373 43.64397858 -78.56288147 43.6337738 C-79.27760652 43.63134391 -79.99233156 43.62891401 -80.72871494 43.62641048 C-83.18558518 43.13162497 -84.06615842 42.17594188 -85.6171875 40.24609375 C-87.25201909 35.77597452 -86.07380263 31.9925069 -84.6796875 27.62109375 C-84.45442383 26.9146875 -84.22916016 26.20828125 -83.99707031 25.48046875 C-79.68877994 12.8931662 -70.53698086 3.2228045 -58.9296875 -3.06640625 C-41.03452795 -11.4326783 -16.79214494 -11.2532434 0 0 Z M-69.5390625 13.55078125 C-75.07215512 20.72716078 -78.3309348 28.24232483 -79.6171875 37.24609375 C-49.2571875 37.24609375 -18.8971875 37.24609375 12.3828125 37.24609375 C11.0829068 24.24703673 8.55007705 15.86804962 -1.6171875 7.24609375 C-22.97133762 -6.37724966 -51.58640164 -5.49970419 -69.5390625 13.55078125 Z " fill="#FFF3F3" transform="translate(1177.6171875,126.75390625)"/>
<path d="M0 0 C5.96743036 4.7327896 10.29222081 11.23537264 12 18.6875 C12.73968079 25.59559026 12.73968079 25.59559026 10.6875 28.625 C6.99742039 30.94838346 3.64865607 30.8245661 -0.59521484 30.84863281 C-1.59331932 30.85608017 -1.59331932 30.85608017 -2.61158752 30.86367798 C-4.8113814 30.87827477 -7.01110317 30.88509727 -9.2109375 30.890625 C-10.74166872 30.89637831 -12.27239992 30.90213602 -13.8031311 30.90789795 C-17.01263769 30.91840074 -20.22211928 30.92424819 -23.43164062 30.92773438 C-27.53968257 30.93321894 -31.64739304 30.95724894 -35.75533104 30.98570633 C-38.91752074 31.00435016 -42.07963086 31.00953922 -45.24187088 31.01107025 C-46.75610797 31.01409316 -48.27034378 31.02210953 -49.78452682 31.03525543 C-51.90527166 31.05235381 -54.02520987 31.05042704 -56.14599609 31.04394531 C-57.35162201 31.04759094 -58.55724792 31.05123657 -59.79940796 31.05499268 C-63.31730983 30.65106642 -65.20213674 29.82624719 -68 27.6875 C-69.80119117 22.94384567 -68.28595161 19.6926819 -66.36328125 15.24609375 C-64.1668239 11.12380274 -61.31874147 7.94309417 -58 4.6875 C-57.44183594 4.130625 -56.88367188 3.57375 -56.30859375 3 C-41.66633824 -10.58910024 -16.35485454 -10.73287329 0 0 Z M-55.046875 10.8671875 C-58.60385581 15.23257304 -60.15497492 18.15242477 -62 23.6875 C-39.89 23.6875 -17.78 23.6875 5 23.6875 C3.88224738 15.86323163 2.16011385 10.67992258 -4.1640625 5.81640625 C-20.07225392 -3.96543911 -41.9472083 -3.08245758 -55.046875 10.8671875 Z " fill="#FFE9E9" transform="translate(305,135.3125)"/>
</svg>
